<?xml version="1.0" ?><svg enable-background="new 0 0 32 32" version="1.1" viewBox="0 0 32 32" xml:space="preserve" xmlns="http://www.w3.org/2000/svg" xmlns:xlink="http://www.w3.org/1999/xlink"><g id="Layer_6"/><g id="Layer_4_copy"><g><circle cx="16" cy="16" fill="#D3D3D3" r="16"/><circle cx="16" cy="16" fill="#FFFFFF" r="13.809"/><linearGradient gradientUnits="userSpaceOnUse" id="SVGID_1_" x1="16" x2="16" y1="27.597" y2="4.403"><stop offset="0" style="stop-color:#FF2D76"/><stop offset="1" style="stop-color:#FB0000"/></linearGradient><circle cx="16" cy="16" fill="url(#SVGID_1_)" r="11.597"/></g></g><g id="Official_copy_2"><path clip-rule="evenodd" d="M16.092,7.68c-3.711,0-6.645,3.112-6.645,6.867   c0,3.923,5.159,9.773,6.645,9.773c1.302,0,6.461-5.851,6.461-9.773C22.553,10.792,19.619,7.68,16.092,7.68z M16.114,18.115   c-2.317,0-4.103-1.768-4.103-3.836c0-0.958,0.325-1.813,0.856-2.497c0.007,0.85,0.705,1.538,1.566,1.538   c0.865,0,1.567-0.695,1.567-1.551c0-0.63-0.38-1.169-0.925-1.412c0.332-0.082,0.676-0.139,1.039-0.139   c2.089,0,3.875,1.768,3.875,4.061C19.989,16.347,18.203,18.115,16.114,18.115z" fill="#FFFFFF" fill-rule="evenodd"/></g></svg>